<?xml version="1.0" encoding="UTF-8" standalone="no"?>
<!-- Created with Inkscape (http://www.inkscape.org/) -->

<svg
   xmlns:dc="http://purl.org/dc/elements/1.1/"
   xmlns:cc="http://creativecommons.org/ns#"
   xmlns:rdf="http://www.w3.org/1999/02/22-rdf-syntax-ns#"
   xmlns:svg="http://www.w3.org/2000/svg"
   xmlns="http://www.w3.org/2000/svg"
   xmlns:xlink="http://www.w3.org/1999/xlink"
   xmlns:sodipodi="http://sodipodi.sourceforge.net/DTD/sodipodi-0.dtd"
   xmlns:inkscape="http://www.inkscape.org/namespaces/inkscape"
   width="25.36796mm"
   height="36.762985mm"
   viewBox="0 0 89.88647 130.26255"
   id="svg2"
   version="1.1"
   inkscape:version="0.91 r13725"
   sodipodi:docname="logo-bright-borders.svg">
  <title
     id="title4136">can - coloured</title>
  <defs
     id="defs4">
    <linearGradient
       id="linearGradient6795"
       inkscape:collect="always">
      <stop
         id="stop6797"
         offset="0"
         style="stop-color:#3a5c6f;stop-opacity:1" />
      <stop
         style="stop-color:#41667b;stop-opacity:0.61176473"
         offset="0.44624212"
         id="stop6799" />
      <stop
         id="stop6801"
         offset="0.65667355"
         style="stop-color:#6d99b2;stop-opacity:0.2;" />
      <stop
         id="stop6803"
         offset="1"
         style="stop-color:#6d99b2;stop-opacity:0;" />
    </linearGradient>
    <linearGradient
       inkscape:collect="always"
       id="linearGradient6620">
      <stop
         style="stop-color:#6d99b2;stop-opacity:0.28158844"
         offset="0"
         id="stop6622" />
      <stop
         id="stop6630"
         offset="0.30276692"
         style="stop-color:#6d99b2;stop-opacity:0.40000001" />
      <stop
         style="stop-color:#6d99b2;stop-opacity:0.67509025"
         offset="0.51648492"
         id="stop6632" />
      <stop
         id="stop6628"
         offset="0.79465485"
         style="stop-color:#6d99b2;stop-opacity:1" />
      <stop
         style="stop-color:#6d99b2;stop-opacity:1"
         offset="1"
         id="stop6624" />
    </linearGradient>
    <linearGradient
       inkscape:collect="always"
       id="linearGradient6215">
      <stop
         style="stop-color:#4c7b96;stop-opacity:1"
         offset="0"
         id="stop6217" />
      <stop
         id="stop6223"
         offset="0.3522529"
         style="stop-color:#0c3d59;stop-opacity:1" />
      <stop
         style="stop-color:#124a69;stop-opacity:1"
         offset="0.52411366"
         id="stop6225" />
      <stop
         id="stop6227"
         offset="0.77872217"
         style="stop-color:#2d5166;stop-opacity:1" />
      <stop
         style="stop-color:#072e45;stop-opacity:1"
         offset="1"
         id="stop6219" />
    </linearGradient>
    <linearGradient
       inkscape:collect="always"
       id="linearGradient6201">
      <stop
         style="stop-color:#ecf9ff;stop-opacity:1"
         offset="0"
         id="stop6203" />
      <stop
         id="stop6209"
         offset="0.29921678"
         style="stop-color:#edfaff;stop-opacity:1" />
      <stop
         style="stop-color:#d2e5ec;stop-opacity:1;"
         offset="0.49487734"
         id="stop6211" />
      <stop
         id="stop6213"
         offset="0.72427249"
         style="stop-color:#d2e5ec;stop-opacity:1;" />
      <stop
         style="stop-color:#acd0df;stop-opacity:1"
         offset="1"
         id="stop6205" />
    </linearGradient>
    <pattern
       inkscape:collect="always"
       xlink:href="#Polkadots-large"
       id="pattern5899"
       patternTransform="matrix(0.67502931,0,0,0.76341765,21.833994,-0.01879856)" />
    <pattern
       inkscape:collect="always"
       xlink:href="#Polkadots-large"
       id="pattern5805"
       patternTransform="matrix(0.66619043,0,0,0.64851284,21.833994,-0.01879856)" />
    <pattern
       inkscape:stockid="Polka dots, large"
       id="Polkadots-large"
       patternTransform="translate(0,0) scale(10,10)"
       height="10"
       width="10"
       patternUnits="userSpaceOnUse"
       inkscape:collect="always">
      <circle
         id="circle5495"
         r="0.45"
         cy="0.810"
         cx="2.567"
         style="fill:black;stroke:none" />
      <circle
         id="circle5497"
         r="0.45"
         cy="2.33"
         cx="3.048"
         style="fill:black;stroke:none" />
      <circle
         id="circle5499"
         r="0.45"
         cy="2.415"
         cx="4.418"
         style="fill:black;stroke:none" />
      <circle
         id="circle5501"
         r="0.45"
         cy="3.029"
         cx="1.844"
         style="fill:black;stroke:none" />
      <circle
         id="circle5503"
         r="0.45"
         cy="1.363"
         cx="6.08"
         style="fill:black;stroke:none" />
      <circle
         id="circle5505"
         r="0.45"
         cy="4.413"
         cx="5.819"
         style="fill:black;stroke:none" />
      <circle
         id="circle5507"
         r="0.45"
         cy="4.048"
         cx="4.305"
         style="fill:black;stroke:none" />
      <circle
         id="circle5509"
         r="0.45"
         cy="3.045"
         cx="5.541"
         style="fill:black;stroke:none" />
      <circle
         id="circle5511"
         r="0.45"
         cy="5.527"
         cx="4.785"
         style="fill:black;stroke:none" />
      <circle
         id="circle5513"
         r="0.45"
         cy="5.184"
         cx="2.667"
         style="fill:black;stroke:none" />
      <circle
         id="circle5515"
         r="0.45"
         cy="1.448"
         cx="7.965"
         style="fill:black;stroke:none" />
      <circle
         id="circle5517"
         r="0.45"
         cy="5.049"
         cx="7.047"
         style="fill:black;stroke:none" />
      <circle
         id="circle5519"
         r="0.45"
         cy="0.895"
         cx="4.340"
         style="fill:black;stroke:none" />
      <circle
         id="circle5521"
         r="0.45"
         cy="0.340"
         cx="7.125"
         style="fill:black;stroke:none" />
      <circle
         id="circle5523"
         r="0.45"
         cy="1.049"
         cx="9.553"
         style="fill:black;stroke:none" />
      <circle
         id="circle5525"
         r="0.45"
         cy="2.689"
         cx="7.006"
         style="fill:black;stroke:none" />
      <circle
         id="circle5527"
         r="0.45"
         cy="2.689"
         cx="8.909"
         style="fill:black;stroke:none" />
      <circle
         id="circle5529"
         r="0.45"
         cy="4.407"
         cx="9.315"
         style="fill:black;stroke:none" />
      <circle
         id="circle5531"
         r="0.45"
         cy="3.870"
         cx="7.820"
         style="fill:black;stroke:none" />
      <circle
         id="circle5533"
         r="0.45"
         cy="5.948"
         cx="8.270"
         style="fill:black;stroke:none" />
      <circle
         id="circle5535"
         r="0.45"
         cy="7.428"
         cx="7.973"
         style="fill:black;stroke:none" />
      <circle
         id="circle5537"
         r="0.45"
         cy="8.072"
         cx="9.342"
         style="fill:black;stroke:none" />
      <circle
         id="circle5539"
         r="0.45"
         cy="9.315"
         cx="8.206"
         style="fill:black;stroke:none" />
      <circle
         id="circle5541"
         r="0.45"
         cy="9.475"
         cx="9.682"
         style="fill:black;stroke:none" />
      <circle
         id="circle5543"
         r="0.45"
         cy="6.186"
         cx="9.688"
         style="fill:black;stroke:none" />
      <circle
         id="circle5545"
         r="0.45"
         cy="6.296"
         cx="3.379"
         style="fill:black;stroke:none" />
      <circle
         id="circle5547"
         r="0.45"
         cy="8.204"
         cx="2.871"
         style="fill:black;stroke:none" />
      <circle
         id="circle5549"
         r="0.45"
         cy="8.719"
         cx="4.59"
         style="fill:black;stroke:none" />
      <circle
         id="circle5551"
         r="0.45"
         cy="9.671"
         cx="3.181"
         style="fill:black;stroke:none" />
      <circle
         id="circle5553"
         r="0.45"
         cy="7.315"
         cx="5.734"
         style="fill:black;stroke:none" />
      <circle
         id="circle5555"
         r="0.45"
         cy="6.513"
         cx="6.707"
         style="fill:black;stroke:none" />
      <circle
         id="circle5557"
         r="0.45"
         cy="9.670"
         cx="5.730"
         style="fill:black;stroke:none" />
      <circle
         id="circle5559"
         r="0.45"
         cy="8.373"
         cx="6.535"
         style="fill:black;stroke:none" />
      <circle
         id="circle5561"
         r="0.45"
         cy="7.154"
         cx="4.37"
         style="fill:black;stroke:none" />
      <circle
         id="circle5563"
         r="0.45"
         cy="7.25"
         cx="0.622"
         style="fill:black;stroke:none" />
      <circle
         id="circle5565"
         r="0.45"
         cy="5.679"
         cx="0.831"
         style="fill:black;stroke:none" />
      <circle
         id="circle5567"
         r="0.45"
         cy="8.519"
         cx="1.257"
         style="fill:black;stroke:none" />
      <circle
         id="circle5569"
         r="0.45"
         cy="6.877"
         cx="1.989"
         style="fill:black;stroke:none" />
      <circle
         id="circle5571"
         r="0.45"
         cy="3.181"
         cx="0.374"
         style="fill:black;stroke:none" />
      <circle
         id="circle5573"
         r="0.45"
         cy="1.664"
         cx="1.166"
         style="fill:black;stroke:none" />
      <circle
         id="circle5575"
         r="0.45"
         cy="0.093"
         cx="1.151"
         style="fill:black;stroke:none" />
      <circle
         id="circle5577"
         r="0.45"
         cy="10.093"
         cx="1.151"
         style="fill:black;stroke:none" />
      <circle
         id="circle5579"
         r="0.45"
         cy="4.451"
         cx="1.302"
         style="fill:black;stroke:none" />
      <circle
         id="circle5581"
         r="0.45"
         cy="3.763"
         cx="3.047"
         style="fill:black;stroke:none" />
    </pattern>
    <radialGradient
       inkscape:collect="always"
       xlink:href="#linearGradient6201"
       id="radialGradient6207"
       cx="81.398911"
       cy="74.565437"
       fx="81.398911"
       fy="74.565437"
       r="26.201113"
       gradientTransform="matrix(0.85156261,-0.03017287,0.07500448,2.1168357,6.550181,-70.845943)"
       gradientUnits="userSpaceOnUse" />
    <radialGradient
       inkscape:collect="always"
       xlink:href="#linearGradient6215"
       id="radialGradient6221"
       cx="74.743156"
       cy="67.255959"
       fx="74.743156"
       fy="67.255959"
       r="27.77232"
       gradientTransform="matrix(1,0,0,1.3756973,0,-24.785115)"
       gradientUnits="userSpaceOnUse" />
    <linearGradient
       inkscape:collect="always"
       xlink:href="#linearGradient6215"
       id="linearGradient6235"
       x1="51.772785"
       y1="88.357147"
       x2="97.712723"
       y2="88.357147"
       gradientUnits="userSpaceOnUse" />
    <linearGradient
       inkscape:collect="always"
       xlink:href="#linearGradient6215"
       id="linearGradient6237"
       x1="52.0158"
       y1="79.167648"
       x2="98.242805"
       y2="79.167648"
       gradientUnits="userSpaceOnUse" />
    <linearGradient
       inkscape:collect="always"
       xlink:href="#linearGradient6215"
       id="linearGradient6239"
       x1="50.923706"
       y1="64.815819"
       x2="98.85112"
       y2="64.815819"
       gradientUnits="userSpaceOnUse" />
    <linearGradient
       inkscape:collect="always"
       xlink:href="#linearGradient6215"
       id="linearGradient6241"
       x1="50.569427"
       y1="55.025597"
       x2="97.835571"
       y2="55.025597"
       gradientUnits="userSpaceOnUse" />
    <radialGradient
       inkscape:collect="always"
       xlink:href="#linearGradient6620"
       id="radialGradient6626"
       cx="41.453487"
       cy="66.649696"
       fx="41.453487"
       fy="66.649696"
       r="9.9257936"
       gradientTransform="matrix(1.8068335,-0.42401114,1.1280179,4.8068089,-86.150043,-225.10827)"
       gradientUnits="userSpaceOnUse" />
    <radialGradient
       inkscape:collect="always"
       xlink:href="#linearGradient6795"
       id="radialGradient6793"
       cx="28.308371"
       cy="82.268913"
       fx="28.308371"
       fy="82.268913"
       r="23.82066"
       gradientTransform="matrix(1.2834348,0.17398527,-0.06756448,0.49840194,31.655458,-4.480111)"
       gradientUnits="userSpaceOnUse" />
  </defs>
  <sodipodi:namedview
     id="base"
     pagecolor="#ffffff"
     bordercolor="#666666"
     borderopacity="1.0"
     inkscape:pageopacity="0.0"
     inkscape:pageshadow="2"
     inkscape:zoom="5.6568542"
     inkscape:cx="56.78473"
     inkscape:cy="72.020228"
     inkscape:document-units="mm"
     inkscape:current-layer="layer2"
     showgrid="false"
     inkscape:window-width="1920"
     inkscape:window-height="1148"
     inkscape:window-x="1920"
     inkscape:window-y="0"
     inkscape:window-maximized="1"
     borderlayer="true"
     inkscape:snap-global="false"
     fit-margin-top="1"
     fit-margin-right="1"
     fit-margin-bottom="1"
     fit-margin-left="1" />
  <metadata
     id="metadata7">
    <rdf:RDF>
      <cc:Work
         rdf:about="">
        <dc:format>image/svg+xml</dc:format>
        <dc:type
           rdf:resource="http://purl.org/dc/dcmitype/StillImage" />
        <dc:title>can - coloured</dc:title>
        <cc:license
           rdf:resource="http://creativecommons.org/publicdomain/zero/1.0/" />
        <dc:subject>
          <rdf:Bag>
            <rdf:li>can</rdf:li>
            <rdf:li>tin</rdf:li>
            <rdf:li>packaging</rdf:li>
            <rdf:li>school</rdf:li>
            <rdf:li>teaching</rdf:li>
            <rdf:li>education</rdf:li>
            <rdf:li>metal</rdf:li>
            <rdf:li>Dose</rdf:li>
            <rdf:li>Verpackung</rdf:li>
            <rdf:li>Schule</rdf:li>
            <rdf:li>Unterricht</rdf:li>
            <rdf:li>Erziehung</rdf:li>
            <rdf:li>Metall</rdf:li>
            <rdf:li>line art</rdf:li>
            <rdf:li>outline</rdf:li>
            <rdf:li />
          </rdf:Bag>
        </dc:subject>
        <dc:description>coloured line art can</dc:description>
        <dc:date>2014-04-10</dc:date>
        <dc:creator>
          <cc:Agent>
            <dc:title>Frank Tremmel</dc:title>
          </cc:Agent>
        </dc:creator>
      </cc:Work>
      <cc:License
         rdf:about="http://creativecommons.org/publicdomain/zero/1.0/">
        <cc:permits
           rdf:resource="http://creativecommons.org/ns#Reproduction" />
        <cc:permits
           rdf:resource="http://creativecommons.org/ns#Distribution" />
        <cc:permits
           rdf:resource="http://creativecommons.org/ns#DerivativeWorks" />
      </cc:License>
    </rdf:RDF>
  </metadata>
  <g
     inkscape:groupmode="layer"
     id="layer2"
     inkscape:label="Ebene 2"
     style="display:inline"
     transform="translate(-27.741025,16.281914)">
    <g
       id="g16902"
       transform="matrix(0.11278813,0,0,0.14380932,63.171528,96.083488)">
      <path
         id="imagebot_8"
         d="m 9.5934213,37.73939 63.9999987,1 32,56 -143.999999,-4 48.0000003,-53 z"
         label="Livello 1"
         style="fill:#2e3436;stroke:#7c7c7c;stroke-width:7.51999998;stroke-linecap:round;stroke-linejoin:round;stroke-opacity:1"
         inkscape:connector-curvature="0" />
      <path
         id="imagebot_7"
         d="m 149.59342,30.73939 64,1.21 32,67.79 -124,-4.84 28,-64.16 0,0 z"
         label="Livello 1"
         style="fill:#2e3436;stroke:#7c7c7c;stroke-width:7.51999998;stroke-linecap:round;stroke-linejoin:round;stroke-opacity:1"
         inkscape:connector-curvature="0" />
      <path
         id="imagebot_6"
         d="m 71.57042,48.83939 24.749,38.89 -26.163,-0.71 -12.021,-37.47 13.435,-0.71 0,0 z"
         label="Livello 1"
         style="fill:#eff0ee"
         inkscape:connector-curvature="0" />
      <path
         id="imagebot_5"
         d="m 208.75342,36.83939 24.749,55.15 -23.335,-0.7 -8.485,-53.74 7.071,-0.71 0,0 z"
         label="Livello 1"
         style="fill:#eff0ee"
         inkscape:connector-curvature="0" />
    </g>
    <g
       id="g4258">
      <path
         sodipodi:nodetypes="cccccccccccccsccccccccccccccsssccc"
         inkscape:connector-curvature="0"
         id="path4169-0"
         d="m 49.247932,37.534994 -0.203072,7.32502 c 0.41039,1.451004 1.265867,2.533583 0.256377,4.998772 -0.20542,1.41112 -0.335785,2.41769 0.265165,4.636083 0.65417,1.579765 0.82784,3.090885 0,4.458934 -0.33652,1.619018 -0.55095,3.238035 0.15925,4.857053 0.81109,1.672101 0.75385,3.344201 0.0796,5.016302 -0.25887,1.417231 -0.67955,2.705014 0.0796,4.936677 0.53082,1.857889 0.53082,3.397283 0,4.618182 -0.49998,1.365945 -0.56095,2.907491 0,4.697806 l 0,5.732916 c -0.14339,0.534385 0.0639,0.951877 0.55737,1.273981 -0.20899,0.902403 -0.8063,1.804807 -0.23888,2.70721 -0.23593,1.401311 8.15026,9.96595 25.63888,9.87336 19.02973,-0.10075 24.04639,-10.351103 24.04639,-10.351103 0.189298,-0.608695 -0.0112,-1.412289 -0.23887,-2.229467 0.24906,-0.291954 0.413538,-0.583908 0.557368,-0.875862 l -0.0796,-5.095925 c 0.97618,-2.298168 0.38046,-3.698103 -0.0796,-5.175549 -0.563238,-1.351647 -0.707288,-2.843025 0,-4.618182 0.3223,-1.524761 1.14405,-2.621416 0.0796,-5.334797 -0.392948,-1.066819 -0.844528,-2.075008 0,-4.37931 0.57997,-1.584286 0.80143,-2.602241 0.11506,-4.397583 -0.421172,-1.672101 -0.511438,-3.962919 0.12379,-5.63502 0.65798,-1.565935 0.38851,-3.131871 0,-4.697806 -0.758948,-1.592476 -0.1478,-3.184953 0.0796,-4.777429 l -0.15925,-7.484639 c 0.95534,-0.928944 0.75809,-1.300522 0.71661,-2.229467 0,0 -1.477585,-3.138419 -9.952968,-4.936678 -6.401614,-1.358259 -13.869957,-2.005083 -19.190457,-1.83974 -6.50273,0.202083 -15.226813,1.346646 -20.223343,3.90996 -1.16888,0.599659 -2.62759,1.910972 -2.78683,2.786834 -0.14566,1.121609 -0.0494,1.250196 0.39813,2.229467 z"
         style="display:inline;fill:url(#radialGradient6207);fill-opacity:1;fill-rule:evenodd;stroke:#ff6600;stroke-width:0.14173228;stroke-linecap:butt;stroke-linejoin:miter;stroke-miterlimit:4;stroke-dasharray:none;stroke-opacity:1" />
      <path
         sodipodi:nodetypes="sscccccs"
         inkscape:connector-curvature="0"
         id="path5807-5"
         d="m 59.909881,32.920989 c 4.890796,0.200455 9.339114,2.731954 14.230524,2.916816 7.6364,0.288605 21.566757,3.71231 21.566757,3.71231 -4.441124,1.921742 -13.493246,2.37118 -21.920311,2.651651 L 55.313687,40.964329 C 52.415132,39.922825 49.578303,38.829882 48.065842,36.6333 l 5.568467,-2.651651 c 0,0 4.155827,-1.14754 6.275572,-1.06066 z"
         style="display:inline;fill:url(#radialGradient6793);fill-opacity:1;fill-rule:evenodd;stroke:none;stroke-width:0.29055119;stroke-linecap:butt;stroke-linejoin:miter;stroke-miterlimit:4;stroke-dasharray:none;stroke-opacity:1" />
      <path
         sodipodi:nodetypes="ccccccccccsssssssc"
         inkscape:connector-curvature="0"
         id="path4324-0"
         d="m 48.879233,38.089364 0.08839,6.98268 c 0.879022,2.681113 1.035478,5.362226 0.265165,8.043339 1.05178,3.974476 0.566065,5.972174 0,7.866563 0.612127,2.919583 1.730096,6.272746 0.795496,7.866563 -0.467751,3.358757 -0.444839,6.717515 0.265165,10.076272 l -0.53033,10.783378 0.353553,4.772971 c 4.301566,4.466036 4.714045,4.032181 9.015612,6.09879 l 9.280776,2.38648 c 2.185846,-1.72315 -7.62225,-7.393838 -7.601398,-14.495678 0.0068,-2.332621 0.286121,-4.824254 0,-8.043339 -0.231227,-2.601484 -3.128643,-6.837457 -3.623922,-10.69499 -0.180135,-1.403004 0.84917,-3.377349 0.61872,-4.772971 -0.633179,-3.834595 -2.229399,-6.389535 -2.65165,-10.253049 -0.196933,-1.80189 1.240406,-3.634519 0.795495,-5.391689 -0.416267,-1.64404 -2.08961,-2.45516 -3.458215,-4.255422 -2.241183,-2.948053 -3.612857,-6.969898 -3.612857,-6.969898 z"
         style="display:inline;fill:url(#radialGradient6626);fill-opacity:1;fill-rule:evenodd;stroke:none;stroke-width:0.29055119;stroke-linecap:butt;stroke-linejoin:miter;stroke-miterlimit:4;stroke-dasharray:none;stroke-opacity:1" />
      <path
         sodipodi:nodetypes="sscccccs"
         inkscape:connector-curvature="0"
         id="path5807"
         d="m 61.697139,33.271635 c 4.890796,0.200455 9.339114,2.731954 14.230524,2.916816 7.6364,0.288605 21.566757,3.71231 21.566757,3.71231 -4.441124,1.921742 -13.493246,2.37118 -21.920311,2.651651 L 57.100945,41.314975 C 54.20239,40.273471 51.365561,39.180528 49.8531,36.983946 l 5.568467,-2.651651 c 0,0 4.155827,-1.14754 6.275572,-1.06066 z"
         style="opacity:0.28800001;fill:url(#pattern5899);fill-opacity:1;fill-rule:evenodd;stroke:none;stroke-width:0.29055119;stroke-linecap:butt;stroke-linejoin:miter;stroke-miterlimit:4;stroke-dasharray:none;stroke-opacity:1" />
      <path
         sodipodi:nodetypes="ccccccccccsssssssc"
         inkscape:connector-curvature="0"
         id="path4324"
         d="m 48.527275,37.779441 0.08839,6.98268 c 0.879022,2.681113 1.035478,5.362226 0.265165,8.043339 1.05178,3.974476 0.566065,5.972174 0,7.866563 0.612127,2.919583 1.730096,6.272746 0.795496,7.866563 -0.467751,3.358757 -0.444839,6.717515 0.265165,10.076272 l -0.53033,10.783378 0.353553,4.772971 c 4.301566,4.466036 4.714045,4.032181 9.015612,6.098793 l 9.280776,2.38648 c 2.185846,-1.72315 -7.62225,-7.393841 -7.601398,-14.495681 0.0068,-2.332621 0.286121,-4.824254 0,-8.043339 -0.231227,-2.601484 -3.128643,-6.837457 -3.623922,-10.69499 -0.180135,-1.403004 0.84917,-3.377349 0.61872,-4.772971 -0.633179,-3.834595 -2.229399,-6.389535 -2.65165,-10.253049 -0.196933,-1.80189 1.240406,-3.634519 0.795495,-5.391689 -0.416267,-1.64404 -2.08961,-2.45516 -3.458215,-4.255422 -2.241183,-2.948053 -3.612857,-6.969898 -3.612857,-6.969898 z"
         style="opacity:0.29600004;fill:url(#pattern5805);fill-opacity:1;fill-rule:evenodd;stroke:none;stroke-width:0.29055119;stroke-linecap:butt;stroke-linejoin:miter;stroke-miterlimit:4;stroke-dasharray:none;stroke-opacity:1" />
      <path
         sodipodi:nodetypes="sssssccssssssscccsssssscccssssssssscssssssscssscsssssssscscsssssssscscscsssccssccccssssscssscssccccssscsscssscccsssccsssccscssscccsssccscssscccssscccssssccssc"
         inkscape:connector-curvature="0"
         id="path4169"
         d="m 76.564727,27.784663 c -0.816654,-0.05046 -4.610008,0.0079 -5.46101,0.0293 -6.644912,0.166862 -14.284769,1.424393 -19.853134,3.778072 -0.755562,0.319366 -2.258164,0.987256 -2.887292,1.586435 -0.629128,0.599178 -1.210354,1.177881 -1.345703,2.318359 -0.135348,1.140477 0.03671,1.800637 0.341797,2.517578 l 0.242187,6.912109 c 0.725302,1.793448 0.973453,3.371702 0.740234,4.761719 -0.325244,1.938499 -0.964862,3.824508 -0.599609,5.480469 0.299447,1.357615 0.921984,2.737263 0.607422,3.900391 -0.567312,2.097699 -0.863607,3.867466 -0.404297,5.513671 0.400965,1.437091 1.032682,2.901207 0.78711,4.1875 -0.437433,2.291286 -1.193472,3.93873 -0.683594,5.607422 0.511731,1.674757 1.105791,2.994018 0.871094,3.914063 -0.441791,1.731878 -1.310141,3.519481 -0.921876,5.058594 -0.03779,1.332138 -6.06e-4,5.346405 -0.04883,5.6875 -0.0538,0.844048 0.336073,1.101585 0.744141,1.582031 -0.08687,0.249809 -0.515188,0.747362 -0.601563,1.115234 -0.120096,0.511501 0.0461,0.869736 0.285157,1.578125 0.388589,1.151506 1.054354,2.058412 1.792969,2.791016 1.120968,1.111849 2.817865,2.347669 5.064453,3.548828 4.493175,2.402311 11.256902,4.570781 20.320312,4.523431 9.862744,-0.0515 16.18296,-2.81771 20.076172,-5.531244 2.174831,-1.51584 4.09166,-3.318546 5.443363,-5.595703 0.26892,-0.863813 0.0512,-1.253431 -0.11133,-2 0.41342,-0.357214 0.48505,-1.07208 0.52344,-1.287109 l -0.082,-5.25 c -0.0315,-2.016419 -0.12389,-4.356307 -0.59961,-6.173828 -0.34943,-1.335022 0.24913,-2.209581 0.46679,-3.382813 0.53651,-2.89177 0.20329,-4.090255 -0.57617,-6.158203 -0.4135,-1.097046 -0.12918,-1.448391 0.62891,-3.490234 0.62771,-1.690685 0.16443,-3.821744 -0.50586,-5.931641 -0.48167,-1.516163 0.30412,-2.656833 0.71094,-4.054687 0.54556,-1.874584 -0.12209,-3.891062 -0.57227,-5.601563 -0.38794,-1.474023 0.74591,-2.918603 0.76953,-4.27539 l 0.12305,-7.06836 c 0.19025,-0.467014 0.44761,-0.797587 0.55664,-1.173828 0.3385,-1.168061 -0.16918,-2.022487 -0.71484,-2.875 -0.30661,-0.479027 -0.87321,-1.04252 -1.6875,-1.650391 -1.628565,-1.21572 -4.459454,-2.300414 -8.859379,-3.185546 -6.003026,-1.207628 -10.089782,-1.428871 -14.579814,-1.706307 z m 21.866923,6.348882 c 0.84102,0.464515 1.411176,1.094065 1.53125,1.402344 0.21571,0.55382 -0.04792,0.961438 -0.388672,1.326171 C 97.742918,35.225213 95.17554,34.220709 93.285166,33.584717 89.0239,32.15107 82.704007,30.950281 74.271494,31.08081 c -9.091449,0.14073 -15.239603,1.508249 -19.126953,2.851563 -2.655117,0.917502 -4.206314,1.809531 -4.966797,2.302734 -0.325941,-0.234153 -0.665253,-0.450339 -0.591797,-0.671875 0.276842,-0.834916 1.229385,-1.272086 1.988281,-1.669922 4.65813,-2.44193 11.784704,-4.034483 18.324642,-4.527343 0.84474,-0.06366 3.110599,-0.19181 6.49944,-0.03749 3.392282,0.154472 8.870094,0.576309 13.91999,1.846007 5.049896,1.269698 6.753875,2.208195 8.11335,2.959061 z M 77.777889,32.55542 c 5.344687,0.191821 10.144593,0.74353 13.776808,1.93164 2.469615,0.80782 4.751531,1.864025 6.917969,3.220703 -0.630512,0.352118 -1.520905,0.795712 -2.072266,0.976563 -1.806369,0.592503 -3.743844,1.019934 -5.740234,1.345703 -2.352846,-0.649522 -8.223567,-1.996741 -16.410156,-1.927734 -8.88338,0.07488 -14.618265,0.953144 -16.353516,1.253906 -1.599151,-0.34672 -3.048829,-0.744672 -4.251953,-1.199219 -0.769714,-0.290802 -1.44291,-0.614547 -2.023438,-0.945312 0.911248,-0.61731 2.390426,-1.483291 4.603516,-2.248047 3.777728,-1.305432 9.152151,-2.257199 18.150391,-2.396484 1.041179,-0.01612 2.469451,-0.04522 3.402879,-0.01172 z m -3.516161,6.96289 c 5.475154,-0.04615 9.858526,0.467765 12.839844,0.97461 -3.93359,0.39577 -7.984774,0.473914 -11.765625,0.490234 -3.791621,0.01637 -8.945248,-0.263057 -12.804303,-0.739506 2.666528,-0.38284 7.206182,-0.687206 11.730084,-0.725338 z m -24.289062,0.06836 c 0.822831,0.519845 2.031409,0.909794 3.138672,1.328125 5.649461,2.134398 14.461286,2.738624 22.234375,2.705078 6.944387,-0.02997 14.951865,-0.301654 21.796875,-2.546875 0.65834,-0.215941 1.381596,-0.588698 1.990234,-0.914063 0.01538,2.046817 0.159145,4.276106 0.07618,6.242188 -1.427156,0.692261 -9.692632,4.352007 -24.736328,4.11914 C 65.507802,50.381493 59.30038,49.071322 55.35158,47.811279 52.620091,46.939674 51.065507,46.142534 50.328143,45.717529 50.249913,45.296292 50.16581,44.883177 50.07033,44.565185 Z m 0.615234,8.142578 c 1.001232,0.461105 2.373354,1.05973 4.22461,1.769531 4.122528,1.580644 10.463073,2.872426 19.58789,3.013672 13.437248,0.207999 21.788772,-2.839937 24.701172,-4.119141 -0.03695,0.989468 0.03053,1.878081 0.498047,2.666016 0.599771,1.010829 0.138871,2.780752 -0.02344,3.611328 -0.04559,0.233279 -0.108298,0.464412 -0.164063,0.697266 -0.68695,0.424755 -2.820371,1.673206 -6.263672,2.986328 -4.197788,1.60085 -10.469441,3.180609 -18.730469,3.052734 -8.945224,-0.138466 -15.210511,-1.7427 -19.226562,-3.294922 -2.090431,-0.807961 -3.526735,-1.575311 -4.449219,-2.136718 -0.05717,-0.599611 -0.169189,-1.173732 -0.365234,-1.679688 -0.363093,-0.937079 -0.584573,-2.81754 0.07227,-4.199219 0.191902,-0.403668 0.212164,-1.341865 0.13867,-2.367187 z m 48.353516,9.685547 c -0.19727,1.015968 -0.250268,1.98118 0.199219,2.824218 1.061345,1.990621 0.638579,2.774589 0.294921,3.916016 -0.994122,0.641237 -3.520422,2.181021 -6.589843,3.34375 -3.946755,1.495072 -9.971612,2.973696 -18.240235,2.845703 -8.945177,-0.138465 -15.163546,-1.74191 -19.130859,-3.292969 -2.206995,-0.862845 -3.633893,-1.662878 -4.521484,-2.228515 -0.07833,-0.455015 -0.178377,-0.880815 -0.300782,-1.246094 -0.39322,-1.173446 -0.534433,-2.503457 -0.238281,-3.705078 0.154884,-0.628434 0.250688,-1.317297 0.310547,-2.011719 0.991193,0.538747 2.206748,1.169422 3.828125,1.904297 4.078943,1.848745 10.781316,3.846731 19.925781,3.988281 8.500921,0.131588 15.093087,-1.716592 19.300781,-3.742187 2.37999,-1.145734 4.020737,-1.991134 5.16211,-2.595703 z m -0.0625,8.978515 c -0.210563,1.099902 -0.282259,2.220324 0.07031,3.181641 -0.804649,0.53318 -2.720388,1.693108 -5.814453,2.873047 -4.197788,1.60085 -10.46944,3.180609 -18.730469,3.052734 -8.945223,-0.138466 -15.210511,-1.7427 -19.226562,-3.294922 -2.010247,-0.776969 -3.440081,-1.528315 -4.367188,-2.083984 0.209142,-1.098689 0.338262,-2.301754 0.31836,-3.287109 0.967551,0.532361 2.13894,1.147428 3.701172,1.865234 4.12232,1.894103 10.648456,3.715871 19.792968,3.857422 8.493326,0.13147 14.705602,-1.698014 18.84961,-3.400391 2.393892,-0.983421 4.222481,-2.027564 5.406252,-2.763672 z m 0.597656,4.81836 c 0.269389,1.178587 0.240699,2.271984 -0.04492,3.24414 -0.32242,1.097417 -0.816494,3.132834 -0.632812,4.59961 -0.906745,0.580302 -2.691542,2.061102 -5.539063,3.14702 -4.197788,1.60085 -10.53194,3.301167 -18.792969,3.173292 -8.945223,-0.138466 -15.148011,-2.3052 -19.164062,-3.857422 -1.896359,-0.732951 -3.239384,-1.430125 -4.167969,-1.974609 0.489841,-2.032554 0.0165,-3.940885 -0.443354,-5.611324 -0.165136,-0.583908 -0.277253,-1.46875 -0.03125,-2.06836 0.934068,0.496755 2.193911,1.230432 3.878906,1.994141 4.078943,1.848745 10.781316,3.846731 19.925781,3.988281 8.500921,0.131588 15.091135,-1.716592 19.298829,-3.742187 3.038177,-1.462587 4.751808,-2.37209 5.712883,-2.892582 z m -0.259766,9.519531 c 0.393388,1.459793 0.08211,2.348796 0.01367,3.71875 l -0.234375,4.691406 c -0.178774,0.351454 -0.427546,0.59996 -0.693359,0.908203 -1.730725,1.91245 -3.196138,3.206682 -4.900391,4.271485 -3.674208,2.295614 -9.531104,4.728016 -18.226562,4.488281 -8.228331,-0.226857 -17.590475,-3.206503 -23.552733,-8.611328 -1.196871,-1.170288 -0.444186,-4.88507 -0.523437,-6.513672 -0.03425,-0.703885 -0.05979,-1.683096 -0.121094,-2.431641 0.91606,0.546804 2.065641,1.183761 3.685547,1.917969 4.078943,1.848745 10.718816,4.034231 19.863281,4.175781 8.500921,0.131588 15.153635,-1.727315 19.361329,-3.75291 2.578399,-1.241249 4.216204,-2.269306 5.328124,-2.862324 z m -0.605468,10.550781 c 0.08481,0.439371 0.126338,0.793909 0.115234,0.871094 -0.08876,0.176572 -1.141078,2.224032 -4.470703,4.552734 -3.475252,2.430553 -9.292638,5.20421 -18.714844,4.99023 -5.789248,-0.13148 -12.889376,-1.66977 -17.017578,-3.876948 -2.0641,-1.103589 -3.966715,-2.167796 -4.957031,-3.017579 -0.860054,-0.738006 -1.716111,-1.468782 -1.822266,-1.923828 -0.03703,-0.158741 0.0535,-0.374888 0.164063,-0.636718 2.755751,2.080435 11.377468,7.808553 23.257812,7.921873 8.878107,0.0847 14.93331,-2.611401 18.763672,-4.992186 2.415008,-1.501063 2.827305,-2.35297 4.681641,-3.888672 z"
         style="color:#000000;font-style:normal;font-variant:normal;font-weight:normal;font-stretch:normal;font-size:medium;line-height:normal;font-family:sans-serif;text-indent:0;text-align:start;text-decoration:none;text-decoration-line:none;text-decoration-style:solid;text-decoration-color:#000000;letter-spacing:normal;word-spacing:normal;text-transform:none;direction:ltr;block-progression:tb;writing-mode:lr-tb;baseline-shift:baseline;text-anchor:start;white-space:normal;clip-rule:nonzero;display:inline;overflow:visible;visibility:visible;opacity:1;isolation:auto;mix-blend-mode:normal;color-interpolation:sRGB;color-interpolation-filters:linearRGB;solid-color:#000000;solid-opacity:1;fill:url(#radialGradient6221);fill-opacity:1;fill-rule:evenodd;stroke:none;stroke-width:2.48031497;stroke-linecap:butt;stroke-linejoin:miter;stroke-miterlimit:4;stroke-dasharray:none;stroke-dashoffset:0;stroke-opacity:1;color-rendering:auto;image-rendering:auto;shape-rendering:auto;text-rendering:auto;enable-background:accumulate" />
      <path
         sodipodi:nodetypes="sszssszss"
         inkscape:connector-curvature="0"
         id="path4173-94"
         d="M 74.469755,81.426589 C 65.549101,81.288504 59.361216,78.931705 55.322275,77.322575 53.35375,76.538307 52.359706,75.53046 52.04859,75.888696 c -0.311117,0.358235 1.658928,1.864256 3.058842,2.469458 4.24547,1.835375 10.033362,4.388631 19.202397,4.530561 8.559873,0.132501 15.355641,-1.739876 19.675765,-4.048861 2.264595,-1.210363 4.555341,-3.164941 4.225353,-3.38209 -0.329988,-0.217149 -3.038931,1.60733 -5.170592,2.434187 -4.39538,1.704939 -10.464395,3.660116 -18.5706,3.534638 z"
         style="color:#000000;font-style:normal;font-variant:normal;font-weight:normal;font-stretch:normal;font-size:medium;line-height:normal;font-family:sans-serif;text-indent:0;text-align:start;text-decoration:none;text-decoration-line:none;text-decoration-style:solid;text-decoration-color:#000000;letter-spacing:normal;word-spacing:normal;text-transform:none;direction:ltr;block-progression:tb;writing-mode:lr-tb;baseline-shift:baseline;text-anchor:start;white-space:normal;clip-rule:nonzero;display:inline;overflow:visible;visibility:visible;opacity:1;isolation:auto;mix-blend-mode:normal;color-interpolation:sRGB;color-interpolation-filters:linearRGB;solid-color:#000000;solid-opacity:1;fill:url(#linearGradient6237);fill-opacity:1;fill-rule:evenodd;stroke:none;stroke-width:1.77165353;stroke-linecap:butt;stroke-linejoin:miter;stroke-miterlimit:4;stroke-dasharray:none;stroke-dashoffset:0;stroke-opacity:1;color-rendering:auto;image-rendering:auto;shape-rendering:auto;text-rendering:auto;enable-background:accumulate" />
      <path
         sodipodi:nodetypes="ssszssszs"
         inkscape:connector-curvature="0"
         id="path4173-4"
         d="m 91.45353,87.845746 c -4.46216,1.295046 -9.991859,3.113177 -17.098052,3.003178 -8.911476,-0.137943 -14.531993,-2.243023 -18.473153,-4.211933 -2.215169,-1.106646 -3.601669,-2.587943 -4.039542,-2.094266 -0.437873,0.493676 1.227955,1.701003 3.618164,3.024414 4.165469,2.306337 9.501475,4.554504 18.679688,4.696576 7.334447,0.113532 13.305994,-1.515344 17.741621,-3.391767 3.267056,-1.382077 6.071384,-3.543448 5.814043,-3.870239 -0.257341,-0.326791 -3.73777,2.117015 -6.242769,2.844037 z"
         style="color:#000000;font-style:normal;font-variant:normal;font-weight:normal;font-stretch:normal;font-size:medium;line-height:normal;font-family:sans-serif;text-indent:0;text-align:start;text-decoration:none;text-decoration-line:none;text-decoration-style:solid;text-decoration-color:#000000;letter-spacing:normal;word-spacing:normal;text-transform:none;direction:ltr;block-progression:tb;writing-mode:lr-tb;baseline-shift:baseline;text-anchor:start;white-space:normal;clip-rule:nonzero;display:inline;overflow:visible;visibility:visible;opacity:1;isolation:auto;mix-blend-mode:normal;color-interpolation:sRGB;color-interpolation-filters:linearRGB;solid-color:#000000;solid-opacity:1;fill:url(#linearGradient6235);fill-opacity:1;fill-rule:evenodd;stroke:none;stroke-width:1.77165353;stroke-linecap:butt;stroke-linejoin:miter;stroke-miterlimit:4;stroke-dasharray:none;stroke-dashoffset:0;stroke-opacity:1;color-rendering:auto;image-rendering:auto;shape-rendering:auto;text-rendering:auto;enable-background:accumulate" />
      <path
         sodipodi:nodetypes="zssszsssz"
         inkscape:connector-curvature="0"
         id="path4173-9-7"
         d="m 50.640635,51.886322 c -0.514193,0.372259 1.847499,1.982743 4.147461,2.84668 4.192341,1.574773 10.781814,3.347037 19.926279,3.488587 8.500921,0.131588 15.114754,-1.171485 19.300283,-3.242493 3.103058,-1.535399 3.988337,-2.422404 3.795899,-2.882813 -0.192438,-0.460409 -1.199813,0.411512 -4.426758,1.668505 C 89.010674,55.46825 82.95097,56.695397 74.689942,56.567522 65.744718,56.429056 59.745825,55.23829 55.691933,53.787765 52.925882,52.798043 51.154828,51.514063 50.640635,51.886322 Z"
         style="color:#000000;font-style:normal;font-variant:normal;font-weight:normal;font-stretch:normal;font-size:medium;line-height:normal;font-family:sans-serif;text-indent:0;text-align:start;text-decoration:none;text-decoration-line:none;text-decoration-style:solid;text-decoration-color:#000000;letter-spacing:normal;word-spacing:normal;text-transform:none;direction:ltr;block-progression:tb;writing-mode:lr-tb;baseline-shift:baseline;text-anchor:start;white-space:normal;clip-rule:nonzero;display:inline;overflow:visible;visibility:visible;opacity:1;isolation:auto;mix-blend-mode:normal;color-interpolation:sRGB;color-interpolation-filters:linearRGB;solid-color:#000000;solid-opacity:1;fill:url(#linearGradient6241);fill-opacity:1;fill-rule:evenodd;stroke:none;stroke-width:1.77165353;stroke-linecap:butt;stroke-linejoin:miter;stroke-miterlimit:4;stroke-dasharray:none;stroke-dashoffset:0;stroke-opacity:1;color-rendering:auto;image-rendering:auto;shape-rendering:auto;text-rendering:auto;enable-background:accumulate" />
      <path
         sodipodi:nodetypes="sssszssss"
         inkscape:connector-curvature="0"
         id="path4173-9-0"
         d="m 50.953135,61.448822 c -0.275176,0.136951 1.409999,1.982743 3.772461,2.90918 4.169237,1.634962 10.781814,3.847037 19.926279,3.988587 8.500921,0.131588 15.079799,-1.743685 19.300283,-3.742493 2.978058,-1.410399 5.23207,-3.229114 4.858399,-3.320313 -0.373671,-0.0912 -2.611553,1.012737 -5.621841,2.238587 -4.160906,1.694405 -10.160081,3.298027 -18.421109,3.170152 -8.945224,-0.138466 -15.474424,-1.863361 -19.491727,-3.41234 -2.891051,-1.114722 -4.047569,-1.968311 -4.322745,-1.83136 z"
         style="color:#000000;font-style:normal;font-variant:normal;font-weight:normal;font-stretch:normal;font-size:medium;line-height:normal;font-family:sans-serif;text-indent:0;text-align:start;text-decoration:none;text-decoration-line:none;text-decoration-style:solid;text-decoration-color:#000000;letter-spacing:normal;word-spacing:normal;text-transform:none;direction:ltr;block-progression:tb;writing-mode:lr-tb;baseline-shift:baseline;text-anchor:start;white-space:normal;clip-rule:nonzero;display:inline;overflow:visible;visibility:visible;opacity:1;isolation:auto;mix-blend-mode:normal;color-interpolation:sRGB;color-interpolation-filters:linearRGB;solid-color:#000000;solid-opacity:1;fill:url(#linearGradient6239);fill-opacity:1;fill-rule:evenodd;stroke:none;stroke-width:1.77165353;stroke-linecap:butt;stroke-linejoin:miter;stroke-miterlimit:4;stroke-dasharray:none;stroke-dashoffset:0;stroke-opacity:1;color-rendering:auto;image-rendering:auto;shape-rendering:auto;text-rendering:auto;enable-background:accumulate" />
    </g>
    <g
       id="g16794"
       transform="matrix(0.21996105,0,0,0.19399606,71.495163,23.404986)">
      <path
         id="imagebot_14"
         d="m 150.12802,-160.07964 c -42.426,8.485 -120.209998,74.953004 -120.209998,74.953004 l 25.456,-1.414 94.751998,-73.539004 0.002,0 z"
         label="Livello 1"
         style="fill:#7c7c7c;fill-opacity:1;fill-rule:evenodd;stroke:#7c7c7c;stroke-width:1px;stroke-opacity:1"
         inkscape:connector-curvature="0" />
      <path
         id="imagebot_16"
         d="m -69.19398,-151.59464 c 42.426002,8.485 87.681002,67.882004 87.681002,67.882004 l -25.4499998,-1.414 -62.2300022,-66.468004 -10e-4,0 z"
         label="Livello 1"
         style="fill:#7c7c7c;fill-opacity:1;fill-rule:evenodd;stroke:#7c7c7c;stroke-width:1px;stroke-opacity:1"
         inkscape:connector-curvature="0" />
      <path
         id="imagebot_42"
         d="m -111.60198,-78.689634 c -13.564,-23.494006 251.39,-1.809 251.39,-1.809 37.98,-5.425002 15.566,120.5 -3.617,153.73 0,23.511 -220.04,22.203 -245.96,7.235 0,0 14.01,-131.76 -1.809,-159.15 l -0.004,-0.006 z"
         label="Livello 1"
         style="fill:#babdb6;fill-opacity:1;fill-rule:evenodd;stroke:#7c7c7c;stroke-width:7.51959991;stroke-linecap:round;stroke-opacity:1"
         inkscape:connector-curvature="0" />
      <path
         id="imagebot_36"
         d="m 0.95575215,-20.813794 c 0,20.2150204 -14.77028015,36.62111 -32.97003015,36.62111 -18.199756,0 -32.970039,-16.4060896 -32.970039,-36.62111 0,-20.21502 20.83156,-41.6721 39.031309,-41.6721 18.1997502,0 26.90956015,21.45708 26.90956015,41.6721 l -8e-4,0 z"
         label="Livello 1"
         style="fill:#ffffff;fill-opacity:0.94118;fill-rule:evenodd;stroke:#000000;stroke-width:6.65347147;stroke-linecap:round"
         inkscape:connector-curvature="0" />
      <path
         id="imagebot_35"
         d="m -46.49198,75.040366 20.204002,-0.959 5.115,40.747004 -25.320002,0 0,-39.788004 0.001,0 z"
         label="Livello 1"
         style="fill:#eaeafb;fill-opacity:0.78430996;fill-rule:evenodd;stroke:#7c7c7c;stroke-width:7.51959991;stroke-linecap:round;stroke-opacity:1"
         inkscape:connector-curvature="0" />
      <path
         id="imagebot_34"
         d="m 85.548022,76.300366 19.884998,-2.174 0,46.118004 -22.761998,-2.877 2.877,-41.067004 0,0 z"
         label="Livello 1"
         style="fill:#eaeafb;fill-opacity:0.78430996;fill-rule:evenodd;stroke:#7c7c7c;stroke-width:7.51959991;stroke-linecap:round;stroke-opacity:1"
         inkscape:connector-curvature="0" />
      <path
         id="imagebot_29"
         d="m 48.668032,-27.689624 c 2.3649,-20.076 18.954,-34.642 37.028,-32.512 18.074998,2.1291 30.824998,20.15099 28.459998,40.227 -2.3649,20.0760004 -25.563998,38.949 -43.637998,36.819 -18.075,-2.1291 -24.215,-24.4579996 -21.85,-44.534 z"
         label="Livello 1"
         style="fill:#ffffff;fill-opacity:0.94118;fill-rule:evenodd;stroke:#000000;stroke-width:6.65350008;stroke-linecap:round"
         inkscape:connector-curvature="0" />
      <path
         id="imagebot_23"
         d="m 112.23602,70.230366 c 4.041,-8.081 33.335,-143.44 32.325,-132.33 -1.192,13.117 4.041,121.22 -16.162,127.28 -20.203,6.061 -18.183,7.071 -16.162,5.051 l -0.001,-10e-4 z"
         label="Livello 1"
         style="fill:#ffffff;fill-opacity:0.75;fill-rule:evenodd"
         inkscape:connector-curvature="0" />
      <path
         id="imagebot_20"
         d="m 47.658022,38.430366 1.265,27.262 -53.7469998,6.902 0,-34.165 52.4819998,0 0,10e-4 z"
         label="Livello 1"
         style="fill:#ffffff;fill-opacity:0.78430996;fill-rule:evenodd;stroke:#000000;stroke-width:7.51959991;stroke-linecap:round"
         inkscape:connector-curvature="0" />
      <path
         id="imagebot_19"
         d="m -3.7839778,48.520366 49.1539998,4.5 c 0.096,0 0.173,0.077 0.173,0.173 l 0,8.154 c 0,0.096 -0.077,0.173 -0.173,0.173 l -47.6539998,0 c -0.096,0 0.327,2.423 0.327,2.327 l -0.5,-10.65 c 0,-0.096 -1.423,-4.673 -1.327,-4.673 l 0,-0.004 z"
         label="Livello 1"
         style="fill:#000000"
         inkscape:connector-curvature="0" />
      <path
         id="imagebot_18"
         d="m -14.453978,-32.480634 c 0,10.493 -6.492,19 -14.5,19 -8.008,0 -14.500002,-8.507 -14.500002,-19 0,-10.493 6.492002,-19 14.500002,-19 8.008,0 14.5,8.507 14.5,19 z"
         label="Livello 1"
         style="fill:#000000"
         inkscape:connector-curvature="0" />
      <path
         id="imagebot_17"
         d="m 95.548022,-32.480634 c 0,10.493 -6.492,19 -14.5,19 -8.008,0 -14.5,-8.507 -14.5,-19 0,-10.493 6.492,-19 14.5,-19 8.008,0 14.5,8.507 14.5,19 z"
         label="Livello 1"
         style="fill:#000000"
         inkscape:connector-curvature="0" />
      <path
         id="imagebot_15"
         d="m -57.67398,-154.17964 c 0,8.201 -6.648,14.849 -14.849,14.849 -8.201,0 -14.849,-6.648 -14.849,-14.849 0,-8.201 6.648,-14.849 14.849,-14.849 8.201,0 14.849,6.648 14.849,14.849 z"
         label="Livello 1"
         style="fill:#7c7c7c;fill-opacity:1;stroke:#7c7c7c;stroke-width:4;stroke-opacity:1"
         inkscape:connector-curvature="0" />
      <path
         id="imagebot_13"
         d="m 140.07802,-167.59964 c 0,8.201 6.6482,14.849 14.849,14.849 8.201,0 14.849,-6.6482 14.849,-14.849 0,-8.201 -6.6482,-14.849 -14.849,-14.849 -8.201,0 -14.849,6.6482 -14.849,14.849 z"
         label="Livello 1"
         style="fill:#7c7c7c;fill-opacity:1;stroke:#7c7c7c;stroke-width:4;stroke-opacity:1"
         inkscape:connector-curvature="0" />
    </g>
    <g
       id="g16837"
       transform="matrix(0.13799879,0,0,0.12713514,85.892017,55.178953)">
      <path
         id="imagebot_39"
         d="m 120.68283,-81.174775 c 54.239,-11.258 66.639,0.995 66.639,0.995 0,0 -10.571,124.84 9.961,215.220005 l -80.793,4.023 c 12.66,-108.510005 -10.159,-168.660005 4.193,-220.230005 l 0,-0.008 z"
         label="Livello 1"
         style="fill:#babdb6;fill-opacity:0.94118;fill-rule:evenodd;stroke:#7c7c7c;stroke-width:7.18050003;stroke-linecap:round;stroke-opacity:1"
         inkscape:connector-curvature="0" />
      <path
         id="imagebot_31"
         d="m 132.24283,-69.284775 8.379,21.747 -50.090003,0.529 -3.498,-24.607 45.209003,2.331 0,0 z"
         label="Livello 1"
         style="fill:#eaeafb;fill-opacity:0.78430996;fill-rule:evenodd;stroke:#7c7c7c;stroke-width:7.88630009;stroke-linecap:round;stroke-opacity:1"
         inkscape:connector-curvature="0" />
      <path
         id="imagebot_25"
         d="m 172.65083,-63.884775 c 0,15.152 -2.02,186.880005 -10.102,186.880005 l 22.223,0 c 0,0 -13.132,-181.830005 -12.122,-186.880005 l 0.001,0 z"
         label="Livello 1"
         style="fill:#eff0ee;fill-rule:evenodd"
         inkscape:connector-curvature="0" />
      <path
         id="imagebot_10"
         d="m 152.44283,131.26523 -35.355,28.284 12.728,65.054 14.142,-8.485 -5.657,-48.083 29.698,-16.971 -15.556,-19.799 0,0 z"
         label="Livello 1"
         style="fill:#2e3436;stroke:#7c7c7c;stroke-width:7.51999998;stroke-opacity:1"
         inkscape:connector-curvature="0" />
      <path
         id="imagebot_9"
         d="m 161.17283,132.43523 35.355,28.284 -12.728,65.054 -14.142,-8.485 5.657,-48.083 -29.698,-16.971 15.556,-19.799 0,0 z"
         label="Livello 1"
         style="fill:#2e3436;stroke:#7c7c7c;stroke-width:7.51999998;stroke-opacity:1"
         inkscape:connector-curvature="0" />
    </g>
    <g
       id="g16871"
       transform="matrix(0.13841426,0,0,0.14133265,37.338594,53.025699)">
      <path
         id="imagebot_40"
         d="M 2.5143322,-62.114684 C 39.036327,-73.316685 69.135327,-68.624685 69.135327,-68.624685 l -11.003,214.940005 -82.807995,-9.672 c 0,0 32.6160002,-160.780004 27.1900002,-198.760004 l 0,0.002 z"
         label="Livello 1"
         style="fill:#babdb6;fill-opacity:0.94118;fill-rule:evenodd;stroke:#7c7c7c;stroke-width:7.51959991;stroke-linecap:round;stroke-opacity:0.90058476"
         inkscape:connector-curvature="0" />
      <path
         id="imagebot_30"
         d="m 95.987327,-53.344684 0.347,20.312 -38.80199,8.805 -2.231,-22.835 40.68599,-6.282 0,0 z"
         label="Livello 1"
         style="fill:#eaeafb;fill-opacity:0.78430996;fill-rule:evenodd;stroke:#7c7c7c;stroke-width:7.51959991;stroke-linecap:round;stroke-opacity:1"
         inkscape:connector-curvature="0" />
      <path
         id="imagebot_26"
         d="m 33.184332,130.15532 17.173005,1.01 9.09099,-141.420004 c 0,0 -18.18299,139.400004 -26.263595,140.410004 l -4e-4,0 z"
         label="Livello 1"
         style="fill:#ffffff;fill-opacity:0.75;fill-rule:evenodd"
         inkscape:connector-curvature="0" />
      <path
         id="imagebot_12"
         d="m -2.9796678,140.25532 -35.3560002,28.29 12.728,65.05 14.143,-8.49 -5.657,-48.08 29.698,-16.97 -15.5559998,-19.8 z"
         label="Livello 1"
         style="fill:#2e3436;stroke:#7c7c7c;stroke-width:7.51999998;stroke-opacity:0.90058476"
         inkscape:connector-curvature="0" />
      <path
         id="imagebot_11"
         d="m 9.7483322,141.42532 35.3549948,28.284 -12.727995,65.054 -14.142,-8.485 5.6569,-48.083 -29.6979998,-16.971 15.556,-19.799 10e-5,0 z"
         label="Livello 1"
         style="fill:#2e3436;stroke:#7c7c7c;stroke-width:7.51999998;stroke-opacity:0.90058476"
         inkscape:connector-curvature="0" />
    </g>
  </g>
</svg>
